<?xml version="1.0" encoding="UTF-8"?>
<svg version="1.1" xmlns="http://www.w3.org/2000/svg" width="2816" height="1536">
<path d="M0 0 C6.69295102 4.58256106 7.99781038 12.62973506 10 20 C10.78863226 22.63258077 11.61226377 25.25369879 12.4375 27.875 C12.64407227 28.54192871 12.85064453 29.20885742 13.06347656 29.89599609 C14.12948726 33.32057607 15.23914276 36.72202783 16.4296875 40.10546875 C16.66115479 40.7701416 16.89262207 41.43481445 17.13110352 42.11962891 C17.77260619 43.94875048 18.42690125 45.77337116 19.08203125 47.59765625 C20.48389005 52.79348186 20.77810531 56.33660141 18.46875 61.2734375 C15.45053426 64.60684666 12.71292848 65.53556917 8.5 66.625 C6.79695136 67.11686949 5.09524502 67.61339834 3.39453125 68.11328125 C1.91654053 68.54181396 1.91654053 68.54181396 0.40869141 68.97900391 C-20.38786545 75.20814019 -41.18536999 82.10684912 -61 91 C-61.93021973 91.41572266 -62.86043945 91.83144531 -63.81884766 92.25976562 C-100.14391287 108.66345789 -140.49653745 132.26994779 -156 171 C-159.97030425 182.91091274 -157.40380177 197.2066757 -151.94921875 208.20214844 C-127.65479382 254.21658907 -65.43527519 276.87257397 -18.5625 291.375 C-14.38667059 292.62689396 -10.19935515 293.82958867 -6 295 C-5.03143066 295.27005859 -4.06286133 295.54011719 -3.06494141 295.81835938 C22.12822085 302.71592957 48.03091966 307.30543353 74 310 C74.68807739 310.08218781 75.37615479 310.16437561 76.08508301 310.24905396 C83.07917401 311.03624665 90.01282939 311.17659806 97.046875 311.203125 C98.28382111 311.21013931 99.52076721 311.21715363 100.79519653 311.22438049 C104.78014767 311.24184616 108.76501872 311.24881561 112.75 311.25 C113.76621304 311.25066278 113.76621304 311.25066278 114.80295563 311.25133896 C134.69020921 311.25815231 154.29475844 311.02527391 174 308 C175.22058105 307.82307617 176.44116211 307.64615234 177.69873047 307.46386719 C195.03196676 304.92472897 212.07412626 301.51467423 229 297 C230.46348877 296.60989746 230.46348877 296.60989746 231.95654297 296.21191406 C255.12020723 289.93818169 277.8012802 281.90514251 299.68164062 272.04394531 C301.88059355 271.05376811 304.08790884 270.08475963 306.296875 269.1171875 C328.42291202 259.25052168 349.66058267 246.02586548 367 229 C367.68191406 228.33097656 368.36382813 227.66195312 369.06640625 226.97265625 C380.33356038 215.13222227 387.89775811 200.43527773 388.5 183.9375 C387.95807143 167.78802851 380.13280975 155.01989173 370 143 C369.33226562 142.14535156 368.66453125 141.29070312 367.9765625 140.41015625 C365.0227573 136.80838192 361.54874086 133.99918297 358 131 C357.14535156 130.24589844 356.29070313 129.49179687 355.41015625 128.71484375 C321.29205512 99.18326376 274.86866823 81.04898832 231.7734375 69.6015625 C230.95480225 69.38218018 230.13616699 69.16279785 229.29272461 68.93676758 C227.78360096 68.53676455 226.27154899 68.1475588 224.75610352 67.7722168 C218.86138869 66.23032691 214.42611109 64.13916664 211 59 C210.06457147 50.57248185 212.8622378 43.62947815 215.75 35.8125 C216.64439785 33.34120594 217.53503705 30.86854828 218.421875 28.39453125 C219.07833008 26.56849365 219.07833008 26.56849365 219.74804688 24.70556641 C221.37045129 19.90352775 222.67540025 15.04012184 223.91894531 10.12768555 C225.31119789 6.09964856 227.0472407 1.97637965 231 0 C238.50672987 -0.76389423 244.88656372 0.79382813 252 3 C253.37429481 3.3969807 254.74935689 3.79131077 256.125 4.18359375 C324.87617997 23.99214528 407.50931611 58.22209058 444.375 124.125 C476.16159537 182.86583219 460.94430612 269.0700082 443.12890625 330.55078125 C441.50141548 336.01415617 439.78361147 341.44471866 438.01904297 346.86523438 C437.02910505 349.91046747 436.06197503 352.9621988 435.09765625 356.015625 C427.37041479 380.17170561 417.45641561 403.38579573 406 426 C405.3517627 427.28366455 405.3517627 427.28366455 404.69042969 428.59326172 C390.21600986 456.89742349 371.19113054 483.28531367 349 506 C348.26056152 506.76521973 347.52112305 507.53043945 346.75927734 508.31884766 C337.03693895 518.36132891 327.26654912 527.72310028 316 536 C314.54980469 537.12535156 314.54980469 537.12535156 313.0703125 538.2734375 C284.14486873 560.61422741 251.7262933 575.20946939 217 586 C216.18450684 586.25765137 215.36901367 586.51530273 214.52880859 586.78076172 C203.29563027 590.26640576 191.76173833 592.218117 180.1875 594.1875 C179.45161652 594.3144223 178.71573303 594.4413446 177.95755005 594.57211304 C157.49796252 598.06592272 137.11927773 599.41934073 116.375 599.375 C115.31517914 599.3737915 114.25535828 599.37258301 113.16342163 599.37133789 C63.0458279 599.21765325 12.17300525 590.4942375 -33 568 C-33.84820313 567.58137695 -34.69640625 567.16275391 -35.5703125 566.73144531 C-55.10023628 557.01689252 -72.95089496 545.58600558 -90 532 C-91.06243138 531.16527723 -92.12492577 530.33063467 -93.1875 529.49609375 C-98.44071697 525.30081631 -103.25973765 520.8736595 -107.9453125 516.0546875 C-109.77022787 514.22977213 -111.63341288 512.57502719 -113.625 510.9375 C-116.80654529 508.27405039 -119.46000684 505.32896318 -122.140625 502.16796875 C-124.07860823 499.90834545 -126.09736385 497.74183886 -128.125 495.5625 C-145.22103172 476.50604643 -159.44090563 454.51605113 -171.8046875 432.16015625 C-172.57633804 430.76563746 -173.35453298 429.37471068 -174.140625 427.98828125 C-193.93619588 393.06722135 -207.07883801 353.06707906 -216 314 C-216.32646301 312.63012251 -216.6533027 311.26033475 -216.98046875 309.890625 C-219.92233194 297.36334394 -222.10062255 284.72380638 -224 272 C-224.17031738 270.85917969 -224.34063477 269.71835937 -224.51611328 268.54296875 C-227.04380791 251.13683074 -228.59132093 233.73250349 -229.75 216.1875 C-229.84754074 214.74065826 -229.84754074 214.74065826 -229.947052 213.2645874 C-230.60251584 203.38407302 -231.11055098 193.52127341 -231.1484375 183.6171875 C-231.15317078 182.86394699 -231.15790405 182.11070648 -231.16278076 181.3346405 C-231.01058746 144.50722586 -208.23875575 111.75755734 -183.625 86.3125 C-178.04263801 80.85010281 -172.04828067 76.05410794 -165.81494141 71.36621094 C-164.03830734 70.02883614 -162.27495452 68.67527728 -160.51171875 67.3203125 C-121.94881973 38.01719775 -75.25119797 18.02523202 -28.7578125 5.35546875 C-24.9925605 4.31612597 -21.33716852 3.09180632 -17.66821289 1.75585938 C-5.7994794 -2.53422629 -5.7994794 -2.53422629 0 0 Z " fill="#1A4C9C" transform="translate(1293,359)"/>
<path d="M0 0 C3.85001071 1.46193955 7.44902963 3.21024159 11.09375 5.125 C12.2898659 5.75058241 13.48607748 6.37598193 14.68237305 7.0012207 C15.30477875 7.32740387 15.92718445 7.65358704 16.56845093 7.98965454 C61.76294245 31.62977321 108.99737731 48.76817802 159 59 C159.84820313 59.17772949 160.69640625 59.35545898 161.5703125 59.53857422 C172.81689258 61.88528421 184.11532895 63.66010135 195.5 65.1875 C196.74015869 65.35451416 197.98031738 65.52152832 199.25805664 65.69360352 C212.74879864 67.44777013 226.10015594 68.16919726 239.69140625 68.203125 C240.47197828 68.20595238 241.25255032 68.20877975 242.05677605 68.21169281 C246.19988195 68.22658263 250.34295404 68.23587251 254.48608398 68.24023438 C257.84361827 68.24458832 261.20089113 68.25837432 264.55834961 68.28125 C285.25310005 68.41923647 305.46627341 67.9317357 326 65 C326.84915985 64.87933167 327.6983197 64.75866333 328.57321167 64.63433838 C333.46535126 63.91915857 338.32551115 63.0844484 343.1875 62.1875 C343.89059296 62.06027557 344.59368591 61.93305115 345.31808472 61.80197144 C358.67480943 59.382106 371.872136 56.46074592 385 53 C385.99161133 52.74138184 386.98322266 52.48276367 388.00488281 52.21630859 C413.99754724 45.37723451 439.44350562 36.95222742 464 26 C465.12148437 25.50097168 466.24296875 25.00194336 467.3984375 24.48779297 C482.67269888 17.64514304 497.54131996 10.29694286 512.08422852 2.00878906 C514 1 514 1 517 0 C505.29720915 56.1971581 478.29592981 108.29468471 439 150 C437.90751953 151.17369141 437.90751953 151.17369141 436.79296875 152.37109375 C430.43552117 158.98802898 423.33255518 164.51989918 416 170 C415.34999023 170.48903809 414.69998047 170.97807617 414.03027344 171.48193359 C384.22613577 193.73714004 348.66190447 207.91080363 312 214 C310.92331055 214.18191895 309.84662109 214.36383789 308.73730469 214.55126953 C276.59898942 219.76944507 243.17103915 220.2114765 211 215 C209.90316895 214.82307617 208.80633789 214.64615234 207.67626953 214.46386719 C166.04218664 207.52185596 126.4580414 191.35395245 94 164 C93.46133301 163.55011719 92.92266602 163.10023438 92.36767578 162.63671875 C81.12248318 153.23108455 71.15661494 143.49517487 62 132 C61.36578125 131.24460937 60.7315625 130.48921875 60.078125 129.7109375 C37.38784772 102.42634788 21.56566157 69.29181089 10 36 C9.70512695 35.16082031 9.41025391 34.32164062 9.10644531 33.45703125 C0 7.42663982 0 7.42663982 0 0 Z " fill="#FDFEFE" transform="translate(1150,671)"/>
<path d="M0 0 C2.28735924 1.70368826 4.43723511 3.49101689 6.578125 5.375 C7.32835937 6.01953125 8.07859375 6.6640625 8.8515625 7.328125 C20.74313597 18.28623024 27.09091469 32.92988491 27.953125 48.98046875 C28.28921547 59.74592147 27.97232559 69.40933635 23.578125 79.375 C23.15402344 80.3959375 22.72992187 81.416875 22.29296875 82.46875 C18.89460286 89.96598059 14.4036979 95.60979573 8.578125 101.375 C7.98644531 102.00019531 7.39476562 102.62539062 6.78515625 103.26953125 C-7.19239702 116.93852926 -27.87742268 121.05025866 -46.72729492 120.84594727 C-65.02152164 120.20811101 -81.38592519 113.26601239 -94.50390625 100.3203125 C-109.24156119 84.48367373 -113.22428328 66.73204803 -112.55371094 45.65869141 C-111.78310794 32.31013508 -105.09599502 20.25385891 -96.421875 10.375 C-95.83921875 9.69824219 -95.2565625 9.02148438 -94.65625 8.32421875 C-71.23050498 -17.02086252 -27.80337964 -18.65517085 0 0 Z " fill="#F55D52" transform="translate(949.421875,1052.625)"/>
<path d="M0 0 C11.611875 -0.0825 23.22375 -0.165 35.1875 -0.25 C40.6483313 -0.30462402 40.6483313 -0.30462402 46.21948242 -0.36035156 C50.7310791 -0.37841797 50.7310791 -0.37841797 52.85591125 -0.3817749 C54.31205666 -0.38784065 55.76818445 -0.40174607 57.22419739 -0.42230225 C71.21606416 -0.60963569 84.29042782 1.12317936 95 11 C102.43604862 19.87378775 103.98236881 28.60200292 103 40 C101.25063206 47.98287521 96.65729696 53.31946978 91 59 C90.42378906 59.57878906 89.84757812 60.15757813 89.25390625 60.75390625 C88.84011719 61.16511719 88.42632813 61.57632812 88 62 C88.6290625 62.25652344 89.258125 62.51304688 89.90625 62.77734375 C97.96922312 66.3838242 104.21822168 71.56043523 107.9375 79.75 C111.31341776 90.07633668 110.68104762 100.0402581 106.4375 110 C102.16306672 118.04226705 94.47119202 123.20604569 86 126 C76.61316058 128.46589611 67.1389075 128.25994353 57.51953125 128.1953125 C56.04146476 128.1923646 54.56339616 128.19032877 53.08532715 128.18920898 C47.66101918 128.17880817 42.23675617 128.15088597 36.8125 128.125 C24.664375 128.08375 12.51625 128.0425 0 128 C0 85.76 0 43.52 0 0 Z " fill="#818284" transform="translate(1406,1043)"/>
<path d="M0 0 C10.993125 -0.04125 21.98625 -0.0825 33.3125 -0.125 C36.76243408 -0.14320801 40.21236816 -0.16141602 43.7668457 -0.18017578 C48.03356934 -0.18920898 48.03356934 -0.18920898 50.04142761 -0.19088745 C51.4209574 -0.19392549 52.80048245 -0.20088936 54.17997742 -0.21115112 C71.93949659 -0.33646586 87.83133191 2.03673575 101 15 C109.40461696 24.42091422 112.85550269 35.76983076 112.44921875 48.30859375 C111.22141378 58.39794767 108.26547671 68.61760757 101 76 C100.38769531 76.67289063 99.77539062 77.34578125 99.14453125 78.0390625 C90.29289966 86.90730128 77.92739993 90.9598413 65.53344727 91.11352539 C63.87775848 91.11336913 62.2220637 91.10784354 60.56640625 91.09765625 C59.68846909 91.0962413 58.81053192 91.09482635 57.9059906 91.09336853 C55.12479118 91.08780821 52.34367474 91.07526321 49.5625 91.0625 C47.66731888 91.05747987 45.77213648 91.05291786 43.87695312 91.04882812 C39.25124504 91.03870623 34.6257145 91.0191233 30 91 C30 103.21 30 115.42 30 128 C20.1 128 10.2 128 0 128 C0 85.76 0 43.52 0 0 Z " fill="#F55D52" transform="translate(999,1043)"/>
<path d="M0 0 C9.9 0 19.8 0 30 0 C30 42.57 30 85.14 30 129 C5 129 5 129 -0.5 124.6875 C-1.71904968 122.82491765 -2.8860985 120.92730864 -4 119 C-5.42985146 117.20609042 -6.88927324 115.43541384 -8.375 113.6875 C-9.1175 112.7696875 -9.86 111.851875 -10.625 110.90625 C-13.16664872 107.79607459 -15.76589917 104.74094752 -18.375 101.6875 C-22.67720069 96.64071655 -26.79870139 91.47557766 -30.86791992 86.23999023 C-34.48713218 81.60329767 -38.24897755 77.10543391 -42.06835938 72.63305664 C-47.23991494 66.56995034 -52.21879362 60.37494184 -57 54 C-57.33 78.75 -57.66 103.5 -58 129 C-67.9 129 -77.8 129 -88 129 C-88 86.76 -88 44.52 -88 1 C-62 1 -62 1 -54.875 7.375 C-52.23828125 11.28125 -52.23828125 11.28125 -51.08056641 13.22265625 C-49.61923136 15.62629818 -47.87061306 17.72441338 -46.0625 19.875 C-45.44117188 20.66003906 -44.81984375 21.44507813 -44.1796875 22.25390625 C-36.87631911 31.45510334 -29.43516822 40.54058713 -21.81762695 49.4831543 C-17.77242607 54.24155864 -13.88612811 59.11100012 -10 64 C-7.03 67.63 -4.06 71.26 -1 75 C-0.67 50.25 -0.34 25.5 0 0 Z " fill="#F65E52" transform="translate(1342,1042)"/>
<path d="M0 0 C32.34 0 64.68 0 98 0 C98 7.92 98 15.84 98 24 C75.56 24 53.12 24 30 24 C30 32.91 30 41.82 30 51 C49.8 51 69.6 51 90 51 C90 58.59 90 66.18 90 74 C70.2 74 50.4 74 30 74 C30 83.9 30 93.8 30 104 C53.1 104 76.2 104 100 104 C100 111.92 100 119.84 100 128 C67 128 34 128 0 128 C0 85.76 0 43.52 0 0 Z " fill="#F75D51" transform="translate(1131,1043)"/>
<path d="M0 0 C4.95 0 9.9 0 15 0 C18.10240763 7.57140973 20.87823929 15.21244519 23.52734375 22.953125 C23.84476186 23.8771751 23.84476186 23.8771751 24.16859245 24.81989288 C30.27808156 42.60556797 36.16715491 60.46575826 42.07446289 78.31933594 C43.29596572 82.01050268 44.52033466 85.70070837 45.74650383 89.39032745 C46.20735688 90.779081 46.66707213 92.16821268 47.12561226 93.55773163 C47.75626171 95.46874001 48.39084133 97.37845009 49.02563477 99.28808594 C49.38407974 100.3708783 49.74252472 101.45367065 50.11183167 102.5692749 C50.77590499 104.91639844 50.77590499 104.91639844 52 106 C52.17966812 105.46908249 52.35933624 104.93816498 52.54444885 104.39115906 C61.31094781 78.49224156 70.12521371 52.61241647 79.17602539 26.8112793 C79.75929658 25.14763044 80.34254923 23.48397509 80.92578125 21.8203125 C81.33468346 20.65563194 81.33468346 20.65563194 81.75184631 19.46742249 C83.65997184 14.01722072 85.49257411 8.54715476 87.26245117 3.05029297 C88 1 88 1 89 0 C92.59499796 -0.11109388 96.17884273 -0.06145187 99.77514648 -0.02905273 C100.83934814 -0.01946533 101.9035498 -0.00987793 103 0 C107.54982961 11.87436591 111.77495416 23.84925217 115.92041016 35.87011719 C117.39775022 40.15313385 118.88040827 44.43430341 120.36279297 48.71557617 C121.12113228 50.90577341 121.8792702 53.0960404 122.63720703 55.28637695 C126.10750168 65.31491493 129.58451662 75.34107804 133.08007812 85.36083984 C133.69186329 87.11598785 134.30254606 88.87152052 134.91210938 90.62744141 C135.75120663 93.04424526 136.59386356 95.4597776 137.4375 97.875 C137.80814575 98.94633179 137.80814575 98.94633179 138.1862793 100.03930664 C139.14928764 103.27290932 139.14928764 103.27290932 141 106 C141.28721924 105.13310547 141.57443848 104.26621094 141.87036133 103.37304688 C142.9482222 100.1223071 144.02748485 96.87203948 145.10766602 93.62207031 C145.57273711 92.2218632 146.03726699 90.82147619 146.5012207 89.42089844 C147.17252763 87.39469324 147.84585156 85.36916735 148.51953125 83.34375 C149.12438354 81.52133789 149.12438354 81.52133789 149.74145508 79.66210938 C150.56422019 77.26803049 151.42321305 74.88601823 152.32226562 72.51953125 C154.84166485 65.86117978 157.05003992 59.08876816 159.32421875 52.34375 C159.83548091 50.83056796 160.34686077 49.31742569 160.85835266 47.80432129 C162.1960472 43.84609823 163.53215491 39.88734135 164.86791992 35.9284668 C166.23454637 31.87906754 167.60269077 27.83018122 168.97070312 23.78125 C171.64861169 15.85466452 174.3247015 7.92746678 177 0 C181.95 0 186.9 0 192 0 C189.82592054 8.26150195 187.35036932 16.40006599 184.72094727 24.52514648 C184.0627929 26.56159371 183.41108364 28.60002935 182.75976562 30.63867188 C182.33111711 31.96887508 181.90209317 33.29895737 181.47265625 34.62890625 C180.90430054 36.3934314 180.90430054 36.3934314 180.32446289 38.19360352 C179.38985713 40.97520704 178.32656363 43.67916052 177.20947266 46.39233398 C174.19649282 53.83912736 171.72725734 61.48009451 169.17578125 69.09375 C168.62367627 70.73386183 168.07127765 72.37387484 167.51860046 74.01379395 C166.07487016 78.2996139 164.63425646 82.58647402 163.19458008 86.87365723 C160.88077151 93.76288935 158.56319113 100.6508505 156.24367332 107.53816223 C155.43518836 109.94079422 154.62867064 112.34408018 153.82234192 114.74743652 C153.3299526 116.21120443 152.83749909 117.67495075 152.3449707 119.13867188 C152.1210817 119.80772552 151.89719269 120.47677917 151.66651917 121.16610718 C150.87599981 123.51118574 150.10827758 125.78344485 149 128 C143.72 128 138.44 128 133 128 C128.09074194 115.16647329 123.57168014 102.21689788 119.11001587 89.22171021 C117.0171038 83.12656731 114.91698513 77.03391045 112.81640625 70.94140625 C112.4032164 69.74275436 111.99002655 68.54410248 111.5643158 67.30912781 C108.02280058 57.04519874 104.43601305 46.79774605 100.8125 36.5625 C100.55861511 35.84531799 100.30473022 35.12813599 100.04315186 34.38922119 C98.69817381 30.59183817 97.35058174 26.79539433 96 23 C92.29409427 31.70676484 89.31814193 40.66251768 86.28671265 49.61914062 C85.35883457 52.36025552 84.42758635 55.10020436 83.49536133 57.83984375 C82.24399458 61.51747058 80.99346241 65.19537903 79.74365234 68.87353516 C73.01982255 88.65185027 66.13636183 108.36638617 59 128 C53.72 128 48.44 128 43 128 C42.20980469 125.67839844 41.41960937 123.35679688 40.60546875 120.96484375 C33.94214142 101.40354462 27.2365149 81.85719315 20.48590088 62.32583618 C19.25433334 58.76253766 18.02337601 55.19902875 16.79248047 51.63549805 C12.08630241 38.01269807 12.08630241 38.01269807 7.35006714 24.40032959 C6.60485182 22.26634217 5.86123827 20.13180408 5.11816406 17.99707031 C4.27900182 15.58879392 3.43620517 13.18177917 2.58886719 10.77636719 C2.23598633 9.76219727 1.88310547 8.74802734 1.51953125 7.703125 C1.22151611 6.85395508 0.92350098 6.00478516 0.61645508 5.12988281 C0 3 0 3 0 0 Z " fill="#828284" transform="translate(1679,1043)"/>
<path d="M0 0 C3.56350951 2.79919131 6.81777404 5.77705086 10 9 C10.82564453 9.79277344 10.82564453 9.79277344 11.66796875 10.6015625 C23.1455199 22.6022192 27.54127179 38.95531156 27.42016602 55.12719727 C26.82563857 73.13207155 19.97199522 89.37986722 7 102 C6.48308594 102.54914063 5.96617188 103.09828125 5.43359375 103.6640625 C-7.79749947 116.5842423 -26.74704225 119.32343958 -44.29711914 119.38720703 C-62.93822313 119.14604732 -76.77477123 112.00220636 -90 99 C-90.65097656 98.36191406 -91.30195312 97.72382812 -91.97265625 97.06640625 C-103.39244314 84.99406011 -107.17667388 69.28593702 -107.1875 53.1875 C-107.19974609 52.24068359 -107.21199219 51.29386719 -107.22460938 50.31835938 C-107.2437437 41.05096604 -105.66528358 33.37536498 -101.4375 25.125 C-101.08526367 24.43591553 -100.73302734 23.74683105 -100.37011719 23.03686523 C-91.84509911 6.92007444 -78.58733185 -3.57757079 -61.3515625 -9.1875 C-40.52043795 -15.3300444 -18.10255533 -12.33144096 0 0 Z M-83 22 C-89.87809338 31.38558567 -92.57645896 40.5622765 -92.5 52.125 C-92.49427979 53.13328857 -92.48855957 54.14157715 -92.48266602 55.18041992 C-92.17366447 68.2115457 -88.52572499 78.91926856 -80 89 C-79.41605469 89.70640625 -78.83210938 90.4128125 -78.23046875 91.140625 C-71.10565904 99.00041508 -60.37974867 105.2068514 -49.7043457 106.21728516 C-33.28654189 106.99977536 -19.42188462 105.30647102 -6 95 C-5.28199219 94.44957031 -4.56398438 93.89914062 -3.82421875 93.33203125 C4.98261887 85.58543428 11.04986719 72.35299508 12.23144531 60.72167969 C13.20754133 44.04613724 10.31217362 30.90486232 -1 18 C-9.99311077 8.51989767 -21.99502019 2.1653025 -35.21875 1.6015625 C-36.97916662 1.59373843 -38.73972154 1.60159896 -40.5 1.625 C-41.37269531 1.61339844 -42.24539063 1.60179687 -43.14453125 1.58984375 C-59.63922287 1.66315349 -72.48169628 9.68670665 -83 22 Z " fill="#828385" transform="translate(1641,1053)"/>
<path d="M0 0 C8.8757042 6.51909587 15.06606917 14.29029458 18 25 C18.43020097 28.44817305 18.47736745 31.84057877 18.4375 35.3125 C18.42920166 36.24094727 18.42090332 37.16939453 18.41235352 38.12597656 C18.12990177 49.58889361 14.7829149 57.54492427 7 66 C-1.73424761 74.28633748 -12.56762806 76.44221707 -24.27734375 76.24609375 C-35.30020824 75.51740491 -43.58919278 70.75611411 -51.25 62.9375 C-59.82370631 52.59761019 -61.21067643 41.09620281 -60.23925781 28.13671875 C-59.15875646 18.4871801 -54.17782934 10.57692071 -46.98046875 4.21484375 C-34.53257868 -5.47213762 -14.07238329 -8.45249431 0 0 Z " fill="#FEFCFC" transform="translate(928,1071)"/>
<path d="M0 0 C7.20434586 -0.04609962 14.40817259 -0.08586949 21.61254883 -0.10986328 C24.05950665 -0.11987393 26.50645265 -0.13348649 28.95336914 -0.15087891 C32.48586966 -0.1753452 36.01821097 -0.18653282 39.55078125 -0.1953125 C40.63144363 -0.20563507 41.71210602 -0.21595764 42.82551575 -0.22659302 C54.54591881 -0.22829502 64.77393492 1.50378173 74.8125 7.75 C79.47002573 12.54059789 81.25332214 17.193323 81.5625 23.875 C81.29098175 30.80309473 79.39791002 36.73549522 74.30859375 41.625 C65.10858026 48.07845414 53.39184354 48.43694004 42.578125 48.29296875 C40.73912628 48.28660149 40.73912628 48.28660149 38.86297607 48.28010559 C34.99174955 48.26346854 31.12106609 48.2258441 27.25 48.1875 C24.60677841 48.17243383 21.96354857 48.15874883 19.3203125 48.14648438 C12.8798367 48.11618101 6.44051786 48.05742866 0 48 C0 32.16 0 16.32 0 0 Z " fill="#FCFCFC" transform="translate(1420,1111)"/>
<path d="M0 0 C7.22285779 -0.06910601 14.44455474 -0.12877155 21.66748047 -0.16479492 C24.12129619 -0.17982224 26.57508533 -0.2002498 29.02880859 -0.22631836 C32.56875192 -0.2629682 36.10833814 -0.27978755 39.6484375 -0.29296875 C41.277173 -0.31619453 41.277173 -0.31619453 42.93881226 -0.33988953 C52.18758633 -0.341904 60.6453036 1.01361921 68 7 C73.5739238 12.89200098 74.35698533 16.64680965 74.27734375 24.6640625 C73.76104471 30.87419466 71.54138041 34.42358822 67.25 38.8125 C58.28029327 44.8498026 49.01212818 45.14882401 38.4765625 45.09765625 C37.37524994 45.0962413 36.27393738 45.09482635 35.13925171 45.09336853 C31.63447308 45.08778752 28.1297592 45.07523846 24.625 45.0625 C22.24349051 45.05748255 19.86198001 45.05292007 17.48046875 45.04882812 C11.65360104 45.03867679 5.82687269 45.01909754 0 45 C0 30.15 0 15.3 0 0 Z " fill="#FDFDFD" transform="translate(1420,1055)"/>
<path d="M0 0 C4.62 0 9.24 0 14 0 C14 38.28 14 76.56 14 116 C37.43 116 60.86 116 85 116 C85 119.96 85 123.92 85 128 C56.95 128 28.9 128 0 128 C0 85.76 0 43.52 0 0 Z " fill="#818183" transform="translate(1895,1043)"/>
<path d="M0 0 C5.424375 -0.0825 10.84875 -0.165 16.4375 -0.25 C18.97715454 -0.30462402 18.97715454 -0.30462402 21.56811523 -0.36035156 C31.05278211 -0.47944396 38.41431685 0.11213819 45.875 6.4375 C51.47065679 13.18520378 51.75442386 18.40381823 51 27 C49.98479326 32.13090975 47.05540243 35.30724266 43.20703125 38.640625 C34.51119172 43.99664652 25.85121822 43.3505646 16 43.1875 C10.72 43.125625 5.44 43.06375 0 43 C0 28.81 0 14.62 0 0 Z " fill="#FEFAF9" transform="translate(1029,1067)"/>
<path d="M0 0 C32.34 0 64.68 0 98 0 C98 7.92 98 15.84 98 24 C75.56 24 53.12 24 30 24 C30 32.91 30 41.82 30 51 C29.67 51 29.34 51 29 51 C29 41.43 29 31.86 29 22 C51.44 22 73.88 22 97 22 C97 15.07 97 8.14 97 1 C65.65 1 34.3 1 2 1 C2 42.25 2 83.5 2 126 C34.01 126 66.02 126 99 126 C99 119.07 99 112.14 99 105 C76.56 105 54.12 105 31 105 C31 104.67 31 104.34 31 104 C53.77 104 76.54 104 100 104 C100 111.92 100 119.84 100 128 C67 128 34 128 0 128 C0 85.76 0 43.52 0 0 Z " fill="#DD6B62" transform="translate(1131,1043)"/>
<path d="M0 0 C0.33 0 0.66 0 1 0 C1 14.19 1 28.38 1 43 C0.67 43 0.34 43 0 43 C-1.3441823 34.29881994 -2.19443078 25.75084733 -2.1875 16.9375 C-2.18814453 16.15334717 -2.18878906 15.36919434 -2.18945312 14.5612793 C-2.07196951 2.07196951 -2.07196951 2.07196951 0 0 Z " fill="#2E5897" transform="translate(1064,526)"/>
<path d="M0 0 C1.485 0.99 1.485 0.99 3 2 C3 2.66 3 3.32 3 4 C2.34 4 1.68 4 1 4 C1 27.76 1 51.52 1 76 C0.67 76 0.34 76 0 76 C0 50.92 0 25.84 0 0 Z " fill="#FFF3F0" transform="translate(1284,1095)"/>
<path d="M0 0 C-0.33 0.66 -0.66 1.32 -1 2 C-3.9389977 2.49803099 -6.78725289 2.85550843 -9.75 3.125 C-10.63075195 3.20991699 -11.51150391 3.29483398 -12.41894531 3.38232422 C-22.27636888 4.24636999 -32.11485999 4.17864711 -42 4 C-42 3.67 -42 3.34 -42 3 C-37.78722952 2.56566995 -33.5737861 2.13877255 -29.35961914 1.71826172 C-27.93103552 1.57471291 -26.50264182 1.42925902 -25.07446289 1.28173828 C-16.70228201 0.41838466 -8.42933991 -0.24195846 0 0 Z " fill="#214B8E" transform="translate(1477,735)"/>
<path d="M0 0 C0.99 0.33 1.98 0.66 3 1 C2.72285156 1.56203125 2.44570312 2.1240625 2.16015625 2.703125 C-1.92654218 12.18542883 -1.80095061 21.83852852 -2 32 C-2.99 32.495 -2.99 32.495 -4 33 C-4.08782542 29.47932649 -4.14066643 25.95893856 -4.1875 22.4375 C-4.21263672 21.44685547 -4.23777344 20.45621094 -4.26367188 19.43554688 C-4.32352347 13.43043733 -3.77974968 9.33258102 -1 4 C-0.62691369 2.67723944 -0.26953585 1.34767923 0 0 Z " fill="#27508E" transform="translate(1137,521)"/>
<path d="M0 0 C-0.33 0.66 -0.66 1.32 -1 2 C-2.8203125 2.30859375 -2.8203125 2.30859375 -5.125 2.4375 C-8.50041573 2.72590577 -10.4224333 3.18208332 -13.625 4.5625 C-17.3466714 6.14765634 -19.99801992 6.24501919 -24 6 C-23.67 5.34 -23.34 4.68 -23 4 C-20.45319433 3.18668444 -17.96830129 2.49905646 -15.375 1.875 C-14.67503906 1.69324219 -13.97507812 1.51148438 -13.25390625 1.32421875 C-8.71678184 0.20466857 -4.67025684 -0.18386838 0 0 Z " fill="#2F5695" transform="translate(1525,657)"/>
<path d="M0 0 C0.33 0.66 0.66 1.32 1 2 C0.34 2 -0.32 2 -1 2 C-1 2.66 -1 3.32 -1 4 C-1.99 4.33 -2.98 4.66 -4 5 C-5.68873879 6.64429829 -7.35305515 8.31384218 -9 10 C-11.5625 12.375 -11.5625 12.375 -14 14 C-16.15234375 13.6015625 -16.15234375 13.6015625 -18 13 C-15.37695436 11.01823243 -12.75123789 9.04003469 -10.125 7.0625 C-9.37863281 6.49853516 -8.63226562 5.93457031 -7.86328125 5.35351562 C-7.14785156 4.81533203 -6.43242188 4.27714844 -5.6953125 3.72265625 C-5.03547363 3.22515869 -4.37563477 2.72766113 -3.69580078 2.21508789 C-2 1 -2 1 0 0 Z " fill="#2A5291" transform="translate(1143,419)"/>
<path d="M0 0 C0.33 0 0.66 0 1 0 C1.31368837 5.96007907 0.63699236 9.52316971 -2 15 C-2.68836513 16.99263591 -3.36281399 18.99041337 -4 21 C-4.66 21 -5.32 21 -6 21 C-4.29977612 13.87352969 -2.42080258 6.9165788 0 0 Z " fill="#345C99" transform="translate(1512,385)"/>
<path d="M0 0 C0.66 0 1.32 0 2 0 C0.48238697 3.82852379 -1.79343415 5.73321866 -5 8.25 C-5.886875 8.95640625 -6.77375 9.6628125 -7.6875 10.390625 C-10 12 -10 12 -12 12 C-11.67 10.68 -11.34 9.36 -11 8 C-10.01 8 -9.02 8 -8 8 C-8 7.34 -8 6.68 -8 6 C-7.01 6 -6.02 6 -5 6 C-4.67 4.68 -4.34 3.36 -4 2 C-2.68 2 -1.36 2 0 2 C0 1.34 0 0.68 0 0 Z " fill="#275191" transform="translate(1617,885)"/>
<path d="M0 0 C0.66 0 1.32 0 2 0 C2.23360546 5.48972839 1.81834969 10.76943854 0 16 C-0.66 16.33 -1.32 16.66 -2 17 C-2.25287193 10.93107371 -1.69832609 5.83799592 0 0 Z " fill="#244E90" transform="translate(1739,663)"/>
<path d="M0 0 C4.9240432 4.7652031 9.44259642 9.88657333 14 15 C13.34 15.66 12.68 16.32 12 17 C9.24200902 15.62100451 8.56147404 13.62327638 7 11 C6.443125 10.443125 5.88625 9.88625 5.3125 9.3125 C4.879375 8.879375 4.44625 8.44625 4 8 C4 7.34 4 6.68 4 6 C3.34 6 2.68 6 2 6 C1.34 4.02 0.68 2.04 0 0 Z " fill="#254E8D" transform="translate(1143,573)"/>
<path d="M0 0 C0 0.66 0 1.32 0 2 C-1.45599609 1.76990234 -1.45599609 1.76990234 -2.94140625 1.53515625 C-7.26219894 0.91790015 -11.58141318 0.66519605 -15.9375 0.4375 C-16.71673828 0.39431641 -17.49597656 0.35113281 -18.29882812 0.30664062 C-20.19907117 0.20171923 -22.09951669 0.1004755 -24 0 C-24 -0.33 -24 -0.66 -24 -1 C-21.93769732 -1.1690907 -19.8751477 -1.33517133 -17.8125 -1.5 C-16.08966797 -1.63921875 -16.08966797 -1.63921875 -14.33203125 -1.78125 C-8.90762571 -2.13736572 -5.14311418 -1.9137169 0 0 Z " fill="#E68179" transform="translate(924,1067)"/>
<path d="M0 0 C-0.33 0.66 -0.66 1.32 -1 2 C-3.51363917 2.3679944 -5.9100397 2.60530698 -8.4375 2.75 C-9.47874023 2.83314453 -9.47874023 2.83314453 -10.54101562 2.91796875 C-12.35717938 3.03400632 -14.1803019 3.0247859 -16 3 C-16.66 2.34 -17.32 1.68 -18 1 C-11.97403427 -0.0712828 -6.11090483 -0.09945415 0 0 Z " fill="#315997" transform="translate(1477,735)"/>
<path d="M0 0 C0.66 0 1.32 0 2 0 C1.39297368 6.6772895 -0.77631394 12.70127996 -3 19 C-3.33 19 -3.66 19 -4 19 C-4 16.69 -4 14.38 -4 12 C-3.34 12 -2.68 12 -2 12 C-1.855625 11.13375 -1.71125 10.2675 -1.5625 9.375 C-1.04166667 6.25 -0.52083333 3.125 0 0 Z " fill="#1F4A8B" transform="translate(1733,689)"/>
<path d="M0 0 C0.99 0.33 1.98 0.66 3 1 C-1.62 4.3 -6.24 7.6 -11 11 C-11.66 10.67 -12.32 10.34 -13 10 C-13 9.34 -13 8.68 -13 8 C-11.68 8 -10.36 8 -9 8 C-9 7.34 -9 6.68 -9 6 C-8.01 6 -7.02 6 -6 6 C-6 5.34 -6 4.68 -6 4 C-5.01 4 -4.02 4 -3 4 C-3 3.34 -3 2.68 -3 2 C-2.01 2 -1.02 2 0 2 C0 1.34 0 0.68 0 0 Z " fill="#295191" transform="translate(1602,897)"/>
<path d="M0 0 C1.23556641 0.01740234 1.23556641 0.01740234 2.49609375 0.03515625 C3.32238281 0.04417969 4.14867187 0.05320312 5 0.0625 C5.63808594 0.07410156 6.27617188 0.08570313 6.93359375 0.09765625 C1.53489755 3.69678705 -3.66641355 4.35888044 -10.06640625 4.09765625 C-10.06640625 3.43765625 -10.06640625 2.77765625 -10.06640625 2.09765625 C-8.93203125 1.95328125 -7.79765625 1.80890625 -6.62890625 1.66015625 C-3.60888417 1.18331066 -2.70258268 0.1277213 0 0 Z " fill="#234C8E" transform="translate(1523.06640625,724.90234375)"/>
<path d="M0 0 C0.66 0.33 1.32 0.66 2 1 C1.01 2.485 1.01 2.485 0 4 C-0.66 4 -1.32 4 -2 4 C-2.0825 4.598125 -2.165 5.19625 -2.25 5.8125 C-3.22409548 8.65361183 -4.40494247 9.54982079 -7 11 C-7.99 10.67 -8.98 10.34 -10 10 C-6.7 6.7 -3.4 3.4 0 0 Z " fill="#204B8F" transform="translate(1597,812)"/>
<path d="M0 0 C2.12600304 3.18900456 3.02136239 5.90414569 4.125 9.5625 C4.47820312 10.71878906 4.83140625 11.87507813 5.1953125 13.06640625 C6 16 6 16 6 18 C5.34 18 4.68 18 4 18 C3.67 16.02 3.34 14.04 3 12 C2.34 12 1.68 12 1 12 C0.67 8.04 0.34 4.08 0 0 Z " fill="#335A95" transform="translate(1300,373)"/>
<path d="M0 0 C1.10408203 0.01353516 1.10408203 0.01353516 2.23046875 0.02734375 C4.0287888 0.05069856 5.82693911 0.08656164 7.625 0.125 C7.625 0.455 7.625 0.785 7.625 1.125 C6.79097656 1.17398437 5.95695313 1.22296875 5.09765625 1.2734375 C-1.59637501 1.71817268 -7.87249359 2.4718204 -14.375 4.125 C-14.375 3.465 -14.375 2.805 -14.375 2.125 C-9.40488327 0.13381759 -5.25166865 -0.12345695 0 0 Z " fill="#E16258" transform="translate(905.375,1064.875)"/>
<path d="M0 0 C0.33 1.32 0.66 2.64 1 4 C0.34 4 -0.32 4 -1 4 C-1.12375 4.721875 -1.2475 5.44375 -1.375 6.1875 C-1.9904931 8.95721894 -2.88444374 11.3970354 -4 14 C-4.66 14 -5.32 14 -6 14 C-4.45941767 8.98491285 -2.97068161 4.3852919 0 0 Z " fill="#E46F66" transform="translate(846,1072)"/>
<path d="M0 0 C-1.40844718 3.21524305 -3.10344786 5.32183868 -5.625 7.75 C-6.57246094 8.67039062 -6.57246094 8.67039062 -7.5390625 9.609375 C-8.02117188 10.06828125 -8.50328125 10.5271875 -9 11 C-9 7.25983417 -8.0658409 6.54723807 -5.625 3.8125 C-4.99851562 3.09707031 -4.37203125 2.38164063 -3.7265625 1.64453125 C-2 0 -2 0 0 0 Z " fill="#FEE7E4" transform="translate(884,1074)"/>
<path d="M0 0 C0 3 0 3 -1.5625 4.625 C-4.67270734 6.37947593 -7.47344754 6.66090842 -11 7 C-7.54319097 4.23455278 -3.85658398 2.15078722 0 0 Z " fill="#2B5392" transform="translate(1626,614)"/>
<path d="M0 0 C1.32 0 2.64 0 4 0 C4 0.66 4 1.32 4 2 C5.423125 2.2165625 5.423125 2.2165625 6.875 2.4375 C10 3 10 3 12 4 C11.67 4.99 11.34 5.98 11 7 C7.37 5.02 3.74 3.04 0 1 C0 0.67 0 0.34 0 0 Z " fill="#255090" transform="translate(1591,451)"/>
<path d="M0 0 C0.66 0 1.32 0 2 0 C1.39254603 4.85963179 -0.72758967 8.7405518 -3 13 C-3.33 13 -3.66 13 -4 13 C-4 11.35 -4 9.7 -4 8 C-3.34 8 -2.68 8 -2 8 C-1.855625 7.236875 -1.71125 6.47375 -1.5625 5.6875 C-1 3 -1 3 0 0 Z " fill="#234E8E" transform="translate(1707,762)"/>
<path d="M0 0 C0.66 0 1.32 0 2 0 C1.36843005 5.05255964 -0.13459373 9.29593201 -2 14 C-2.66 12.68 -3.32 11.36 -4 10 C-3.34 10 -2.68 10 -2 10 C-2.04125 9.278125 -2.0825 8.55625 -2.125 7.8125 C-1.99078695 4.79270631 -1.24829381 2.73064271 0 0 Z " fill="#234D8D" transform="translate(1721,727)"/>
<path d="M0 0 C1.65 0 3.3 0 5 0 C5 0.66 5 1.32 5 2 C6.98 2 8.96 2 11 2 C11 2.99 11 3.98 11 5 C7.37 4.01 3.74 3.02 0 2 C0 1.34 0 0.68 0 0 Z " fill="#2F5896" transform="translate(1236,709)"/>
<path d="M0 0 C-1.95649397 0.83764268 -3.91525556 1.66999059 -5.875 2.5 C-7.51082031 3.19609375 -7.51082031 3.19609375 -9.1796875 3.90625 C-12 5 -12 5 -14 5 C-14 4.34 -14 3.68 -14 3 C-12.23358317 2.3012307 -10.46167336 1.61633417 -8.6875 0.9375 C-7.20830078 0.36322266 -7.20830078 0.36322266 -5.69921875 -0.22265625 C-3 -1 -3 -1 0 0 Z " fill="#28508E" transform="translate(1266,436)"/>
<path d="M0 0 C0.33 0.66 0.66 1.32 1 2 C3.64 2 6.28 2 9 2 C9.33 2.99 9.66 3.98 10 5 C1.42857143 4.14285714 1.42857143 4.14285714 -2 2 C-1.34 2 -0.68 2 0 2 C0 1.34 0 0.68 0 0 Z " fill="#305999" transform="translate(1280,721)"/>
<path d="M0 0 C1.90318884 2.85478326 2.4619099 4.41941308 3.125 7.6875 C3.29257813 8.49574219 3.46015625 9.30398438 3.6328125 10.13671875 C3.75398438 10.75160156 3.87515625 11.36648438 4 12 C3.01 12 2.02 12 1 12 C0.67 8.04 0.34 4.08 0 0 Z " fill="#325A96" transform="translate(1156,695)"/>
<path d="M0 0 C0 0.66 0 1.32 0 2 C-4.29 1.01 -8.58 0.02 -13 -1 C-13 -1.33 -13 -1.66 -13 -2 C-8.02398374 -3.71050559 -4.57383705 -2.00885647 0 0 Z " fill="#385D98" transform="translate(1532,428)"/>
<path d="M0 0 C0 3 0 3 -1.875 5.1875 C-4 7 -4 7 -6 7 C-6.33 7.99 -6.66 8.98 -7 10 C-7.99 9.34 -8.98 8.68 -10 8 C-6.7 5.36 -3.4 2.72 0 0 Z " fill="#2B5291" transform="translate(1577,831)"/>
<path d="M0 0 C0.66 0 1.32 0 2 0 C0.77472971 4.05281712 -0.69880494 7.44360764 -3 11 C-4.25541557 7.23375329 -3.37061958 5.62811066 -2 2 C-1.34 2 -0.68 2 0 2 C0 1.34 0 0.68 0 0 Z " fill="#1F4B8D" transform="translate(1699,779)"/>
<path d="M0 0 C3.02419525 0.58803797 6.01758453 1.22678118 9 2 C9 2.99 9 3.98 9 5 C6.03 4.01 3.06 3.02 0 2 C0 1.34 0 0.68 0 0 Z " fill="#2B5495" transform="translate(1192,691)"/>
<path d="M0 0 C4.59306496 1.4859916 7.43569245 3.85014682 11 7 C10.34 7.66 9.68 8.32 9 9 C7.49704815 7.69088122 5.99770689 6.37761608 4.5 5.0625 C3.6646875 4.33160156 2.829375 3.60070313 1.96875 2.84765625 C1.3190625 2.23792969 0.669375 1.62820313 0 1 C0 0.67 0 0.34 0 0 Z " fill="#E46E65" transform="translate(928,1071)"/>
<path d="M0 0 C0.66 0.33 1.32 0.66 2 1 C-0.81070808 5.21606212 -4.5572744 6.79754241 -9 9 C-8.06725891 7.87105124 -7.12859878 6.74699124 -6.1875 5.625 C-5.66542969 4.99851562 -5.14335938 4.37203125 -4.60546875 3.7265625 C-3 2 -3 2 0 0 Z " fill="#E16A61" transform="translate(864,1053)"/>
<path d="M0 0 C4.23429756 1.31061591 8.07407404 2.94356259 12 5 C9.5332355 5.88336837 8.36140628 6.1312406 5.859375 5.22265625 C5.16328125 4.83980469 4.4671875 4.45695312 3.75 4.0625 C3.04359375 3.68222656 2.3371875 3.30195313 1.609375 2.91015625 C1.07828125 2.60980469 0.5471875 2.30945313 0 2 C0 1.34 0 0.68 0 0 Z " fill="#2E5592" transform="translate(1623,391)"/>
<path d="M0 0 C-0.33 0.99 -0.66 1.98 -1 3 C-4.3 3.33 -7.6 3.66 -11 4 C-7.32740617 1.55160412 -4.45351799 0 0 0 Z " fill="#335A97" transform="translate(1582,637)"/>
<path d="M0 0 C0 3.86695678 -1.41909971 6.5088452 -3 10 C-3.66 10 -4.32 10 -5 10 C-4.55090939 8.51800098 -4.09043436 7.03944764 -3.625 5.5625 C-3.36976563 4.73878906 -3.11453125 3.91507813 -2.8515625 3.06640625 C-2 1 -2 1 0 0 Z " fill="#E5675D" transform="translate(946,1120)"/>
<path d="M0 0 C0.33 0 0.66 0 1 0 C1 4.29 1 8.58 1 13 C0.01 13.33 -0.98 13.66 -2 14 C-1.34 9.38 -0.68 4.76 0 0 Z " fill="#E57067" transform="translate(1080,1085)"/>
<path d="M0 0 C2.64 0 5.28 0 8 0 C8 0.66 8 1.32 8 2 C8.66 2.33 9.32 2.66 10 3 C6.7 2.67 3.4 2.34 0 2 C0 1.34 0 0.68 0 0 Z " fill="#2E5693" transform="translate(1298,727)"/>
<path d="M0 0 C-1.41377782 0.36552803 -2.83120576 0.71695495 -4.25 1.0625 C-5.03890625 1.25972656 -5.8278125 1.45695313 -6.640625 1.66015625 C-9.10394822 2.01497267 -10.65604132 1.76877544 -13 1 C-11.59054634 0.43983252 -10.1719969 -0.09748502 -8.75 -0.625 C-7.96109375 -0.92664063 -7.1721875 -1.22828125 -6.359375 -1.5390625 C-3.50082285 -2.09752136 -2.41040161 -1.53690745 0 0 Z " fill="#355B98" transform="translate(1565,646)"/>
<path d="M0 0 C0.99 0 1.98 0 3 0 C3.33 1.32 3.66 2.64 4 4 C4.99 4 5.98 4 7 4 C6.67 4.99 6.34 5.98 6 7 C3.95880212 5.38405168 1.95927063 3.7143618 0 2 C0 1.34 0 0.68 0 0 Z " fill="#3C629F" transform="translate(1176,865)"/>
<path d="M0 0 C0.66 0 1.32 0 2 0 C0.7508258 3.45925163 -0.67527795 6.14693203 -3 9 C-3.33 8.01 -3.66 7.02 -4 6 C-3.34 6 -2.68 6 -2 6 C-2 4.68 -2 3.36 -2 2 C-1.34 2 -0.68 2 0 2 C0 1.34 0 0.68 0 0 Z " fill="#265090" transform="translate(1687,801)"/>
<path d="M0 0 C0.33 0.99 0.66 1.98 1 3 C1.66 3.33 2.32 3.66 3 4 C3 5.98 3 7.96 3 10 C0.51280729 7.08025204 -0.58572305 4.83206182 -1 1 C-0.67 0.67 -0.34 0.34 0 0 Z " fill="#1C4891" transform="translate(1118,779)"/>
<path d="M0 0 C1.39195915 4.17587745 -0.17676781 6.13474776 -2 10 C-2.66 10 -3.32 10 -4 10 C-3.52449439 8.51965236 -3.04448784 7.04074979 -2.5625 5.5625 C-2.29566406 4.73878906 -2.02882813 3.91507812 -1.75390625 3.06640625 C-1 1 -1 1 0 0 Z " fill="#375E97" transform="translate(1521,361)"/>
<path d="M0 0 C3.36591866 1.44253657 5.51047079 3.33264727 8 6 C7.01 6.495 7.01 6.495 6 7 C6 6.34 6 5.68 6 5 C4.02 4.34 2.04 3.68 0 3 C0 2.01 0 1.02 0 0 Z " fill="#285191" transform="translate(1237,830)"/>
<path d="M0 0 C0.66 1.32 1.32 2.64 2 4 C1.34 4 0.68 4 0 4 C-0.33 5.65 -0.66 7.3 -1 9 C-1.66 9 -2.32 9 -3 9 C-2.01 6.03 -1.02 3.06 0 0 Z " fill="#325A99" transform="translate(1649,726)"/>
<path d="M0 0 C0.66 1.32 1.32 2.64 2 4 C2.33 4.33 2.66 4.66 3 5 C3.04063832 6.66617115 3.042721 8.33388095 3 10 C2.01 10.495 2.01 10.495 1 11 C0.67 7.37 0.34 3.74 0 0 Z " fill="#18468B" transform="translate(1072,643)"/>
<path d="M0 0 C0.625 1.875 0.625 1.875 1 4 C0.34 4.66 -0.32 5.32 -1 6 C-3.125 5.625 -3.125 5.625 -5 5 C-3.35 3.35 -1.7 1.7 0 0 Z " fill="#285192" transform="translate(1108,447)"/>
<path d="M0 0 C0.99 0.33 1.98 0.66 3 1 C1.35 2.65 -0.3 4.3 -2 6 C-2.99 5.67 -3.98 5.34 -5 5 C-3.625 3.5 -3.625 3.5 -2 2 C-1.34 2 -0.68 2 0 2 C0 1.34 0 0.68 0 0 Z " fill="#1B498D" transform="translate(1630,873)"/>
<path d="M0 0 C0.33 0.99 0.66 1.98 1 3 C-1.3125 4.5625 -1.3125 4.5625 -4 6 C-4.99 5.67 -5.98 5.34 -7 5 C-4.69 3.35 -2.38 1.7 0 0 Z " fill="#2A5291" transform="translate(1556,847)"/>
<path d="M0 0 C0.66 0 1.32 0 2 0 C2.99 1.98 3.98 3.96 5 6 C4.34 6.66 3.68 7.32 3 8 C2.67 6.35 2.34 4.7 2 3 C1.34 3 0.68 3 0 3 C0 2.01 0 1.02 0 0 Z " fill="#244F90" transform="translate(1193,778)"/>
<path d="M0 0 C0.33 0 0.66 0 1 0 C1.17942163 3.94727588 1.09350689 6.5980513 -1 10 C-1.66 10 -2.32 10 -3 10 C-2.01 6.7 -1.02 3.4 0 0 Z " fill="#355C97" transform="translate(1654,713)"/>
<path d="M0 0 C0.99 0.495 0.99 0.495 2 1 C2.4140625 3.06640625 2.4140625 3.06640625 2.625 5.5625 C2.69976563 6.38878906 2.77453125 7.21507812 2.8515625 8.06640625 C2.92503906 9.02353516 2.92503906 9.02353516 3 10 C2.67 8.68 2.34 7.36 2 6 C1.34 6 0.68 6 0 6 C0 4.02 0 2.04 0 0 Z " fill="#224D8E" transform="translate(1161,712)"/>
<path d="M0 0 C0.66 0 1.32 0 2 0 C2.25 2.25 2.25 2.25 2 5 C0 7.3125 0 7.3125 -2 9 C-1.34 6.03 -0.68 3.06 0 0 Z " fill="#4166A0" transform="translate(1665,676)"/>
<path d="M0 0 C0.33 0.99 0.66 1.98 1 3 C-0.75 4.5625 -0.75 4.5625 -3 6 C-4.32 5.67 -5.64 5.34 -7 5 C-4.69 3.35 -2.38 1.7 0 0 Z " fill="#2F5592" transform="translate(1645,601)"/>
<path d="M0 0 C0.66 0 1.32 0 2 0 C0.60667426 3.36720387 -0.9789286 4.9859524 -4 7 C-3.67 5.35 -3.34 3.7 -3 2 C-2.01 2 -1.02 2 0 2 C0 1.34 0 0.68 0 0 Z " fill="#214C8D" transform="translate(1157,495)"/>
</svg>
